<svg width="17" height="17" viewBox="0 0 17 17" fill="none" xmlns="http://www.w3.org/2000/svg">
<path d="M15.6 1.02148C15.9438 1.11523 16.1938 1.39648 16.1938 1.74023C16.1938 9.77148 9.69375 16.2402 1.69375 16.2402C1.31875 16.2402 1.0375 16.0215 0.94375 15.6777L0.19375 12.4277C0.13125 12.084 0.2875 11.709 0.63125 11.5527L4.13125 10.0527C4.44375 9.92773 4.7875 10.0215 5.00625 10.2715L6.56875 12.1777C9.00625 11.0215 10.975 9.02148 12.1 6.64648L10.1938 5.08398C9.94375 4.86523 9.85 4.52148 9.975 4.20898L11.475 0.708984C11.6313 0.365234 12.0063 0.177734 12.35 0.271484L15.6 1.02148Z" fill="white"/>
</svg>
