<svg width="13" height="14" viewBox="0 0 13 14" fill="none" xmlns="http://www.w3.org/2000/svg">
<path d="M2.7347 13.1401H0.191736V4.96436H2.7347V13.1401ZM1.44955 3.87061C0.656579 3.87061 0.000329494 3.18701 0.000329494 2.3667C0.000329494 1.57373 0.656579 0.91748 1.44955 0.91748C2.26986 0.91748 2.92611 1.57373 2.92611 2.3667C2.92611 3.18701 2.26986 3.87061 1.44955 3.87061ZM12.223 13.1401H9.70736V9.17529C9.70736 8.21826 9.68002 7.01514 8.36752 7.01514C7.05502 7.01514 6.86361 8.02686 6.86361 9.09326V13.1401H4.32064V4.96436H6.75424V6.08545H6.78158C7.13705 5.45654 7.95736 4.77295 9.18783 4.77295C11.7581 4.77295 12.2503 6.46826 12.2503 8.65576V13.1401H12.223Z" fill="#415076"/>
</svg>
