<svg width="17" height="13" viewBox="0 0 17 13" fill="none" xmlns="http://www.w3.org/2000/svg">
<path d="M15.8813 4.20898C16.0063 4.11523 16.1938 4.20898 16.1938 4.36523V10.7402C16.1938 11.584 15.5063 12.2402 14.6938 12.2402H1.69375C0.85 12.2402 0.19375 11.584 0.19375 10.7402V4.36523C0.19375 4.20898 0.35 4.11523 0.475 4.20898C1.19375 4.77148 2.1 5.45898 5.2875 7.77148C5.94375 8.24023 7.06875 9.27148 8.19375 9.27148C9.2875 9.27148 10.4438 8.24023 11.0688 7.77148C14.2563 5.45898 15.1625 4.77148 15.8813 4.20898ZM8.19375 8.24023C7.44375 8.27148 6.4125 7.33398 5.88125 6.95898C1.725 3.95898 1.4125 3.67773 0.475 2.92773C0.2875 2.80273 0.19375 2.58398 0.19375 2.33398V1.74023C0.19375 0.927734 0.85 0.240234 1.69375 0.240234H14.6938C15.5063 0.240234 16.1938 0.927734 16.1938 1.74023V2.33398C16.1938 2.58398 16.0688 2.80273 15.8813 2.92773C14.9438 3.67773 14.6313 3.95898 10.475 6.95898C9.94375 7.33398 8.9125 8.27148 8.19375 8.24023Z" fill="white"/>
</svg>
