<svg width="20" height="20" viewBox="0 0 20 20" fill="none" xmlns="http://www.w3.org/2000/svg">
<path d="M14.4922 9.50684C15.1562 9.89746 15.1562 10.7959 14.4922 11.1475L7.61719 15.0928C6.99219 15.4443 6.25 15.0146 6.25 14.2725V6.14746C6.25 5.44434 6.99219 5.01465 7.61719 5.32715L14.4922 9.50684ZM19.6875 10.21C19.6875 15.5615 15.3516 19.8975 10 19.8975C4.64844 19.8975 0.3125 15.5615 0.3125 10.21C0.3125 4.8584 4.64844 0.522461 10 0.522461C15.3516 0.522461 19.6875 4.8584 19.6875 10.21ZM2.1875 10.21C2.1875 14.5459 5.66406 18.0225 10 18.0225C14.2969 18.0225 17.8125 14.5459 17.8125 10.21C17.8125 5.91309 14.2969 2.39746 10 2.39746C5.66406 2.39746 2.1875 5.91309 2.1875 10.21Z" fill="#12183A"/>
</svg>
