<svg width="15" height="12" viewBox="0 0 15 12" fill="none" xmlns="http://www.w3.org/2000/svg">
<path d="M12.902 3.04639C12.902 3.18311 12.902 3.29248 12.902 3.4292C12.902 7.22998 10.0309 11.5776 4.75358 11.5776C3.11295 11.5776 1.60905 11.1128 0.351233 10.2925C0.569983 10.3198 0.788733 10.3472 1.03483 10.3472C2.37467 10.3472 3.60514 9.88232 4.58951 9.1167C3.3317 9.08936 2.2653 8.26904 1.90983 7.12061C2.10123 7.14795 2.2653 7.17529 2.4567 7.17529C2.7028 7.17529 2.97623 7.12061 3.19498 7.06592C1.88248 6.79248 0.898108 5.64404 0.898108 4.24951V4.22217C1.28092 4.44092 1.74576 4.55029 2.21061 4.57764C1.41764 4.05811 0.925452 3.18311 0.925452 2.19873C0.925452 1.65186 1.06217 1.15967 1.30826 0.749512C2.73014 2.47217 4.86295 3.62061 7.24186 3.75732C7.18717 3.53857 7.15983 3.31982 7.15983 3.10107C7.15983 1.51514 8.44498 0.22998 10.0309 0.22998C10.8512 0.22998 11.5895 0.558105 12.1364 1.13232C12.7653 0.995605 13.3942 0.749512 13.9411 0.421387C13.7223 1.10498 13.2848 1.65186 12.6833 2.00732C13.2575 1.95264 13.8317 1.78857 14.3239 1.56982C13.9411 2.14404 13.4489 2.63623 12.902 3.04639Z" fill="#415076"/>
</svg>
